<?xml version="1.0" standalone="no"?><!DOCTYPE svg PUBLIC "-//W3C//DTD SVG 1.1//EN" "http://www.w3.org/Graphics/SVG/1.1/DTD/svg11.dtd"><svg t="1670434881592" class="icon" viewBox="0 0 1024 1024" version="1.1" xmlns="http://www.w3.org/2000/svg" p-id="1079" xmlns:xlink="http://www.w3.org/1999/xlink" width="200" height="200"><path d="M610.87695313 256.56787084c0-35.56274388-41.98974585-54.38232422-68.55468776-30.7836909L394.23754883 357.38940455a24.71923828 24.71923828 0 0 1-16.41357422 6.26220652H256.56787084A74.15771484 74.15771484 0 0 0 182.410156 437.80932592v148.21655273a74.15771484 74.15771484 0 0 0 74.15771484 74.15771484h121.28906301a24.71923828 24.71923828 0 0 1 16.41357422 6.26220729l148.01879882 131.63818385c26.56494115 23.59863255 68.58764623 4.74609375 68.58764624-30.78369167V256.56787084zM427.13061498 394.33642578L561.43847655 274.92602563v474.01611329l-134.30786157-119.44335937a74.15771484 74.15771484 0 0 0-49.27368113-18.75366263H256.56787084a24.71923828 24.71923828 0 0 1-24.71923827-24.71923827V437.84228516a24.71923828 24.71923828 0 0 1 24.71923827-24.71923829h121.28906301a74.15771484 74.15771484 0 0 0 49.27368113-18.75366185z" p-id="1080"></path><path d="M742.4492185 310.85131811a24.71923828 24.71923828 0 0 1 34.57397511 5.1745608A328.23852514 328.23852514 0 0 1 841.589844 512a328.27148438 328.27148438 0 0 1-64.59960962 195.97412109 24.71923828 24.71923828 0 0 1-39.71557592-29.39941431A278.80004858 278.80004858 0 0 0 792.15136743 512a278.80004858 278.80004858 0 0 0-54.87670897-166.57470678 24.71923828 24.71923828 0 0 1 5.17456004-34.57397511z" p-id="1081"></path><path d="M681.50805689 392.35888672a24.71923828 24.71923828 0 0 1 33.51928711 9.95361303c17.66601537 32.62939453 27.68554688 70.03784205 27.68554688 109.68750025a229.8229983 229.8229983 0 0 1-27.68554688 109.68750025 24.71923828 24.71923828 0 0 1-43.50585937-23.53271484c13.84277344-25.60913086 21.75292969-54.90966822 21.7529297-86.15478541s-7.91015625-60.54565455-21.7529297-86.15478541a24.71923828 24.71923828 0 0 1 9.98657226-33.51928711z" p-id="1082"></path></svg>